# xmcd CD database file
#
# Track frame offsets:
#	150
#	7560
#	19887
#	33739
#	47880
#	57836
#	69213
#	82840
#	95496
#	108487
#
# Disc length: 1663 seconds
#
# Revision: 2
# Processed by: cddbd v1.4PL0 Copyright (c) Steve Scherf et al.
# Submitted via: CDex 1.40Release
#
DISCID=70067d0a
DTITLE=Shattered Realm - broken ties... spoken lies
DYEAR=2002
DGENRE=Hardcore
TTITLE0=Showdown
TTITLE1=Blackest Dawn
TTITLE2=This World Is Mine
TTITLE3=Kings Cannot Fall
TTITLE4=Last Straw
TTITLE5=Medusa
TTITLE6=All Will Suffer
TTITLE7=No Mercy
TTITLE8=You´ve Been Warned
TTITLE9=The April Situation
EXTD=YEAR: 2002
EXTT0=
EXTT1=
EXTT2=
EXTT3=
EXTT4=
EXTT5=
EXTT6=
EXTT7=
EXTT8=
EXTT9=
PLAYORDER=
